<svg width="1024" height="1024" xmlns="http://www.w3.org/2000/svg" p-id="12781" version="1.1" class="icon" t="1715577986223">

 <g>
  <title>Layer 1</title>
  <path stroke="null" stroke-width="2" id="svg_1" fill="#2366d1" p-id="12782" d="m2,313.75l168.19,0l23.29906,-201.75l145.61904,0l-23.29904,201.75l145.61904,0l23.29904,-201.75l145.61906,0l-23.29906,201.75l123.0481,0l0,134.49999l-138.3381,0l-14.5619,134.50001l152.9,0l0,134.49999l-168.19,0l-23.29904,201.75l-145.61906,0l23.29906,-201.75l-145.61906,0l-23.29904,201.75l-145.61904,0l23.29904,-201.75l-123.0481,0l0,-134.49999l138.3381,0l14.5619,-134.50001l-152.9,0l0,-134.49999zm298.51905,134.49999l-14.56192,134.50001l145.61906,0l14.5619,-134.50001l-145.61904,0zm720.81427,-336.24999l-145.61906,0l0,537.99999l145.61906,0l0,-537.99999zm0,672.5l-145.61906,0l0,134.49999l145.61906,0l0,-134.49999z"/>
 </g>
</svg>